<?xml version="1.0" standalone="no"?>
<!DOCTYPE svg PUBLIC "-//W3C//DTD SVG 20010904//EN"
 "http://www.w3.org/TR/2001/REC-SVG-20010904/DTD/svg10.dtd">
<svg version="1.0" xmlns="http://www.w3.org/2000/svg"
 width="522.000000pt" height="522.000000pt" viewBox="0 0 522.000000 522.000000"
 preserveAspectRatio="xMidYMid meet">
<metadata>
Created by potrace 1.11, written by Peter Selinger 2001-2013
</metadata>
<g transform="translate(0.000000,522.000000) scale(0.100000,-0.100000)"
fill="#000000" stroke="none">
<path d="M1478 4582 l-1128 -637 1 -1305 0 -1305 1121 -660 c616 -363 1126
-661 1133 -663 6 -2 518 283 1136 631 l1124 634 3 1305 2 1305 -1130 666
c-622 367 -1132 667 -1133 666 -1 0 -509 -287 -1129 -637z m-148 -702 c14 -10
251 -245 526 -522 541 -543 538 -539 514 -615 -10 -30 -122 -147 -519 -546
-526 -527 -558 -556 -621 -542 -42 9 -87 49 -100 90 -24 73 -22 76 473 573
l462 462 -462 463 c-493 495 -497 499 -473 571 28 85 127 118 200 66z m2696
-1956 c43 -21 64 -59 64 -120 0 -39 -5 -51 -34 -80 l-34 -34 -801 0 -801 0
-36 33 c-65 59 -51 161 26 199 32 17 92 18 808 18 696 0 777 -2 808 -16z"/>
</g>
</svg>
